HIERARCHY
ROOT hip
{
	OFFSET 0.000000 0.000000 0.000000 
	CHANNELS 6 Xposition Yposition Zposition Xrotation Zrotation Yrotation
	JOINT abdomen
	{
		OFFSET 0.000000 3.402643 0.000000 
		CHANNELS 3 Xrotation Zrotation Yrotation
		JOINT chest
		{
			OFFSET 0.000000 8.438565 -0.680529 
			CHANNELS 3 Xrotation Zrotation Yrotation
			JOINT neck
			{
				OFFSET 0.000000 10.207942 -0.272212 
				CHANNELS 3 Xrotation Zrotation Yrotation
				JOINT head
				{
					OFFSET 0.000000 3.130431 0.000000 
					CHANNELS 3 Xrotation Zrotation Yrotation
					End Site
					{
						OFFSET 0.000000 3.130435 0.000000 
					}
				}
			}
			JOINT lCollar
			{
				OFFSET 3.470700 6.669187 -0.816635 
				CHANNELS 3 Yrotation Zrotation Xrotation
				JOINT lShldr
				{
					OFFSET 3.198488 0.000000 0.000000 
					CHANNELS 3 Zrotation Yrotation Xrotation
					JOINT lForeArm
					{
						OFFSET 10.139888 0.000000 0.000000 
						CHANNELS 3 Yrotation Zrotation Xrotation
						JOINT lHand
						{
							OFFSET 8.370511 0.000000 0.000000 
							CHANNELS 3 Zrotation Yrotation Xrotation
							End Site
							{
								OFFSET 4.083176 0.000000 0.000000 
							}
						}
					}
				}
			}
			JOINT rCollar
			{
				OFFSET -3.470700 6.669187 -0.816635 
				CHANNELS 3 Yrotation Zrotation Xrotation
				JOINT rShldr
				{
					OFFSET -3.198488 0.000000 0.000000 
					CHANNELS 3 Zrotation Yrotation Xrotation
					JOINT rForeArm
					{
						OFFSET -10.139888 0.000000 0.000000 
						CHANNELS 3 Yrotation Zrotation Xrotation
						JOINT rHand
						{
							OFFSET -8.370511 0.000000 0.000000 
							CHANNELS 3 Zrotation Yrotation Xrotation
							End Site
							{
								OFFSET -4.083176 0.000000 0.000000 
							}
						}
					}
				}
			}
		}
	}
	JOINT lThigh
	{
		OFFSET 5.308129 -1.633274 1.361059 
		CHANNELS 3 Xrotation Zrotation Yrotation
		JOINT lShin
		{
			OFFSET -2.041588 -20.007561 0.000000 
			CHANNELS 3 Xrotation Zrotation Yrotation
			JOINT lFoot
			{
				OFFSET 0.000000 -19.190928 -1.224953 
				CHANNELS 3 Xrotation Yrotation Zrotation
				End Site
				{
					OFFSET 0.000000 -2.449906 4.627600 
				}
			}
		}
	}
	JOINT rThigh
	{
		OFFSET -5.308129 -1.633274 1.361059 
		CHANNELS 3 Xrotation Zrotation Yrotation
		JOINT rShin
		{
			OFFSET 2.041588 -20.007561 0.000000 
			CHANNELS 3 Xrotation Zrotation Yrotation
			JOINT rFoot
			{
				OFFSET 0.000000 -19.190928 -1.224953 
				CHANNELS 3 Xrotation Yrotation Zrotation
				End Site
				{
					OFFSET 0.000000 -2.449906 4.627600 
				}
			}
		}
	}
}
MOTION
Frames: 17
Frame Time: 0.033333
-0.187968 51.097309 4.911544 0.133390 0.195284 -0.976557 0.000000 0.000000 0.000000 -3.333763 -0.527331 0.400374 5.767174 -0.136651 1.806636 9.667277 -0.966332 1.777585 -0.013819 8.846438 -2.451617 -6.667178 4.266336 -9.807734 0.160387 -6.478209 14.691129 3.581628 -3.204886 -3.609407 0.960028 -10.136892 -2.428638 3.104591 -4.474290 -6.148498 -0.071443 6.801534 10.128304 -6.088909 3.493768 -3.772235 1.667794 7.970926 6.111321 12.780606 -2.852460 13.255870 -11.945443 0.893741 -8.553548 2.507425 -10.970223 -9.128188 10.993658 3.620119 -8.110976 -10.555070 -0.856986 9.039387 
-0.194380 51.127346 4.877473 0.150817 0.312453 -0.996079 0.000000 0.000000 0.000000 -3.363879 -0.644516 0.400365 5.859704 -0.292817 1.845679 9.484378 -0.585674 1.718760 -0.021582 8.788325 -2.480562 -6.664168 4.306290 -9.811721 0.157740 -6.406775 15.013481 3.363241 -3.316317 -3.602760 0.950958 -10.225192 -2.459186 3.100147 -4.434645 -6.380486 -0.075399 6.767823 9.960036 -5.888865 3.741614 -3.773697 1.844181 7.790015 5.997846 12.166039 -2.803698 13.495582 -11.522839 0.880102 -8.497090 2.633477 -11.045552 -9.178565 10.579796 3.608294 -8.053303 -10.295876 -0.841311 9.008365 
-0.190115 51.115551 4.837033 0.082060 0.302678 -1.103500 0.000000 0.000000 0.000000 -3.316206 -0.664038 0.488248 5.989028 -0.214728 1.884752 9.439524 -0.761360 1.757917 -0.079844 8.780580 -2.421156 -6.589128 4.351718 -9.877487 0.168980 -6.366226 15.120263 3.512141 -3.346023 -3.613473 1.039084 -10.198341 -2.409341 3.034144 -4.498439 -6.212081 -0.067852 6.814540 9.744399 -5.995122 3.558360 -3.772152 1.757413 7.812876 6.029216 12.445403 -2.830400 13.572181 -11.636216 0.877325 -8.544200 2.440890 -11.143028 -9.230567 10.990138 3.704734 -7.967573 -10.445194 -0.845623 8.944960 
-0.205601 51.143730 4.770360 0.151656 0.234330 -1.123037 0.000000 0.000000 0.000000 -3.326155 -0.634739 0.527311 6.060003 -0.136646 1.865229 9.326247 -0.946815 1.767660 -0.037212 8.827740 -2.432312 -6.775373 4.206385 -10.016776 0.160330 -6.331151 14.853971 3.625518 -3.123981 -3.607457 1.069404 -9.906623 -2.417260 2.807317 -4.504148 -6.417669 -0.052086 6.650833 9.849954 -5.823992 3.480994 -3.762969 1.737341 7.899265 6.135007 12.204597 -2.891356 13.758008 -11.402800 0.851948 -8.465041 2.537276 -10.971523 -9.188415 10.487508 3.728436 -7.875611 -10.155569 -0.812460 8.813960 
-0.233552 51.151970 4.703646 -0.073221 0.224557 -1.240225 0.000000 0.000000 0.000000 -3.131905 -0.664027 0.595663 6.304483 -0.126887 1.855464 9.410586 -1.073719 1.748289 -0.021157 8.689074 -2.252628 -6.906148 4.092486 -10.036772 0.143636 -6.298554 14.597363 4.250546 -2.927588 -3.639947 1.098464 -9.697998 -2.237452 2.909163 -4.312419 -7.206919 -0.042921 6.171394 10.626338 -5.652351 3.415230 -3.735198 1.891596 7.930542 6.177409 12.133145 -2.860414 13.794582 -11.237351 0.838936 -8.500521 2.536871 -10.951223 -9.196491 10.606662 3.733899 -8.041464 -10.054445 -0.774856 8.764854 
-0.274345 51.231739 4.585356 -0.027623 0.331933 -1.396461 0.000000 0.000000 0.000000 -3.104811 -0.742132 0.703066 6.579075 -0.380647 1.914085 9.363503 -0.429534 1.533233 0.069594 8.587723 -2.233319 -7.833507 3.759583 -11.208148 0.124389 -5.714115 14.405545 5.240508 -2.932499 -3.695797 1.042345 -9.676047 -2.227877 3.782876 -3.733213 -9.098977 -0.019450 5.015716 11.918570 -5.744355 2.986604 -3.739335 2.535444 7.727535 6.219274 10.549161 -2.968269 14.191525 -10.399554 0.776640 -8.253154 2.878521 -10.863209 -9.139030 9.422080 3.659400 -7.966656 -9.369038 -0.729741 8.565815 
-0.334285 51.294132 4.441890 0.049710 0.331912 -1.533177 0.000000 0.000000 0.000000 -3.114312 -0.751901 0.673770 7.012657 -0.556330 1.914067 9.240408 0.087865 1.386732 0.084692 8.684916 -2.242984 -9.765512 3.355192 -13.420916 0.050145 -4.629412 13.059611 7.474181 -2.776500 -3.806117 0.678955 -9.105575 -2.253891 4.880311 -2.132830 -12.552640 0.031281 3.370484 12.706265 -6.948315 2.024619 -3.765218 2.909451 7.644995 6.141933 9.355847 -2.827728 14.396847 -9.643299 0.697888 -8.188194 2.958455 -10.653160 -9.032130 8.585451 3.615958 -8.233244 -8.750690 -0.646499 8.386419 
-0.442151 51.337677 4.249429 0.129791 0.224503 -1.767565 0.000000 0.000000 0.000000 -2.907954 -0.624954 0.693318 7.011014 -0.614901 1.884867 10.277091 -0.263601 1.328111 -0.144051 7.812637 -2.031517 -11.409503 3.068731 -15.999665 0.049655 -3.438540 10.644359 9.639554 -3.393474 -3.975587 0.943529 -7.753394 -2.058883 5.070729 -1.010013 -14.785259 -0.060996 2.368945 11.445064 -9.731833 3.140860 -3.968745 3.132182 7.924343 6.345913 8.570086 -2.918978 14.071609 -9.160768 0.678905 -8.089764 2.792117 -10.350923 -8.791922 8.130979 3.599501 -8.305774 -8.293199 -0.607165 8.125895 
-0.575169 51.381073 4.031473 0.220516 0.117116 -2.001949 0.000000 0.000000 0.000000 -2.819690 -0.527295 0.781217 7.282027 -0.400183 1.845726 11.886900 -0.761520 1.308608 -0.781359 6.738687 -1.917266 -12.975032 3.396822 -16.518787 -0.765201 -3.120878 7.803135 11.825702 -4.037872 -4.155266 1.503368 -6.353469 -1.954434 5.468756 -1.003233 -14.937473 1.529113 1.997247 9.766356 -11.158587 5.417676 -4.232893 3.132094 8.228329 6.651179 7.944761 -3.103971 14.141094 -8.579548 0.629289 -7.993014 2.595882 -10.006424 -8.508791 7.651952 3.569939 -8.233877 -7.846695 -0.553961 7.829507 
-0.711380 51.396027 3.820557 0.048426 0.253703 -2.294943 0.000000 0.000000 0.000000 -2.369598 -0.537072 0.673799 7.284198 -0.351399 1.748074 14.005312 -1.152006 1.386831 -1.037515 5.087778 -1.519552 -14.648486 5.526726 -14.528356 -5.977623 -3.427703 6.524420 13.897042 -3.635389 -4.248586 1.761143 -5.429272 -1.519046 7.146308 -3.358577 -14.813896 10.021179 1.718976 9.797601 -11.320649 5.640157 -4.273979 3.456580 8.280608 6.785682 7.321317 -3.251309 14.136436 -8.056716 0.563827 -7.936741 2.068884 -10.092960 -8.515118 8.333774 3.646821 -7.917905 -7.929417 -0.554765 7.530843 
-0.898495 51.378368 3.593845 -0.169238 0.517078 -2.519605 0.000000 0.000000 0.000000 -1.841514 -0.654273 0.488249 7.301672 -0.468576 1.562528 15.819714 -0.849371 1.357562 -0.992271 3.925179 -1.057392 -17.402201 8.524329 -12.560771 -14.012951 -3.371317 9.606654 14.102796 -2.862335 -4.185299 1.772818 -4.583553 -1.037571 8.769883 -5.482588 -14.307653 18.830650 1.640486 10.313987 -10.450309 4.592754 -4.118862 3.454591 8.287875 6.865650 7.212669 -3.338363 14.207717 -7.649624 0.569871 -8.021527 1.150333 -10.304238 -8.432962 9.904643 3.656174 -7.532182 -8.473944 -0.531657 7.337965 
-1.068416 51.321396 3.348108 -0.384602 0.712125 -2.656409 0.000000 0.000000 0.000000 -1.489672 -0.722637 0.419888 7.838277 -0.146442 1.376949 17.433084 -0.741967 1.396494 -1.215303 3.482615 -0.733865 -20.377754 10.129491 -10.532986 -18.026749 -3.420134 13.454346 13.066091 -3.204055 -4.153040 1.626766 -4.200537 -0.723992 10.520416 -5.515538 -13.091262 22.485083 1.691913 12.566526 -9.670750 3.880572 -4.018205 2.772904 8.290824 6.655218 8.305290 -3.152173 14.611630 -7.718518 0.557372 -8.414315 0.067667 -10.570376 -8.445502 11.990873 3.816102 -6.872168 -9.369183 -0.593521 7.068295 
-1.277224 51.296616 3.086943 -0.531480 0.692553 -2.763824 0.000000 0.000000 0.000000 -1.125644 -0.507806 0.292957 8.342690 0.146457 1.113303 19.030794 -0.517435 1.347690 -1.538153 2.042312 -0.410443 -22.147724 11.513547 -8.764511 -20.635643 -3.845818 14.587985 12.579127 -2.932302 -4.108921 1.459269 -3.594268 -0.400696 11.892047 -5.088832 -11.761092 24.701746 1.959285 13.727858 -8.896310 3.403092 -3.943543 2.341131 8.509926 6.564189 8.834298 -2.958108 14.783671 -7.545480 0.599506 -8.733731 -0.537387 -10.486373 -8.444280 13.046199 4.050827 -6.489498 -9.747769 -0.592857 6.600947 
-1.523650 51.285698 2.810323 -0.752800 0.594940 -2.900538 0.000000 0.000000 0.000000 -0.568144 -0.351558 0.283198 8.708788 0.507755 0.859428 20.887695 0.468668 1.074263 -1.602863 0.847152 0.087847 -24.788679 12.597659 -8.429706 -23.685827 -4.070298 13.933833 12.098882 -0.799503 -3.875404 1.878293 -2.145559 0.088147 12.154729 -5.248526 -10.196792 25.780981 2.420308 12.718087 -9.336245 2.921920 -3.937406 2.147466 8.963735 6.799271 9.004421 -2.964341 14.635037 -7.187595 0.581066 -8.925755 -0.996282 -10.195696 -8.287262 13.703561 4.106344 -6.375286 -9.876806 -0.550302 6.235111 
-1.790206 51.305729 2.478356 -0.786853 0.672924 -2.968889 0.000000 0.000000 0.000000 -0.080272 -0.292961 0.419916 9.167202 0.810516 0.498135 22.387537 1.249916 0.664331 -1.531326 -0.218657 0.507665 -28.859978 13.246332 -9.513654 -26.768175 -3.997756 11.564976 12.301788 2.092944 -3.620636 1.810817 -1.506838 0.527414 13.985039 -4.767944 -9.957280 25.977102 2.689921 12.481842 -10.549511 2.593605 -3.973565 2.294045 9.216454 6.961174 8.023316 -3.055197 14.519189 -6.230941 0.504167 -8.925089 -1.562722 -9.964143 -8.094572 14.089865 4.180088 -6.328892 -9.806661 -0.515258 5.765119 
-2.076288 51.355522 2.073545 -0.685566 0.877948 -2.676065 0.000000 0.000000 0.000000 0.370015 -0.234373 0.263670 9.635257 1.054682 -0.185515 23.639431 1.552720 0.244316 -1.841792 -0.860007 0.927440 -34.567722 14.082584 -11.373713 -30.150497 -3.443912 9.179525 11.884237 4.839427 -3.362424 1.821732 -0.907820 0.937222 16.690907 -4.891540 -10.227298 27.103395 2.845575 11.531711 -12.092734 1.453627 -3.953922 2.586439 9.157353 6.772044 5.943825 -2.859679 14.489513 -4.580798 0.365285 -8.878287 -2.128242 -9.708366 -7.914505 14.091475 4.140669 -6.898296 -9.468982 -0.457326 5.356366 
-2.406529 51.366344 1.672841 -0.794523 0.858749 -2.187693 0.000000 0.000000 0.000000 1.122741 0.078124 -0.224609 9.629145 1.191250 -0.927737 25.421438 0.634764 0.136819 -2.474908 -1.632286 1.600783 -39.804653 15.364033 -11.685820 -33.903187 -3.289527 6.196186 11.329126 6.821434 -3.200506 1.796010 -0.291418 1.610569 20.377295 -4.911875 -11.352829 28.821869 2.855237 10.605068 -14.024240 -0.012688 -3.881837 2.509243 9.413838 6.606275 5.071096 -2.533558 14.253389 -3.480923 0.269857 -9.089202 -2.636239 -9.193747 -7.675851 14.440710 4.129759 -7.681495 -9.312514 -0.434686 4.944705 
